<?xml version="1.0" encoding="UTF-8"?>
<svg xmlns="http://www.w3.org/2000/svg" xmlns:xlink="http://www.w3.org/1999/xlink" width="275px" height="85px" viewBox="0 0 299 85" version="1.1">
<g id="surface1">
<path style=" stroke:none;fill-rule:evenodd;fill:rgb(20%,20%,20%);fill-opacity:1;" d="M 27.109375 83.945312 C 7.867188 82.847656 3.277344 70.792969 3.277344 70.792969 C 3.277344 70.792969 -4.378906 58.738281 3.710938 31.121094 C 11.804688 3.507812 27.109375 0 27.109375 0 C 27.109375 0 38.234375 64.652344 27.109375 83.945312 Z M 27.109375 0 C 27.109375 0 42.417969 3.507812 50.507812 31.121094 C 58.601562 58.738281 50.945312 70.792969 50.945312 70.792969 C 50.945312 70.792969 48.074219 78.332031 37.359375 82.027344 C 51.707031 44.789062 27.109375 0 27.109375 0 Z M 27.109375 0 "/>
<path style=" stroke:none;fill-rule:nonzero;fill:rgb(20%,20%,20%);fill-opacity:1;" d="M 89.125 63.046875 C 92.058594 64.125 93.824219 64.613281 96.953125 64.613281 C 111.246094 64.613281 120.9375 54.804688 120.9375 40.578125 C 120.9375 30.375 114.574219 20.5625 103.609375 20.5625 C 99.402344 20.464844 95.878906 21.839844 91.082031 25.859375 L 89.125 27.429688 C 88.730469 22.132812 84.328125 21.445312 80.410156 21.445312 L 78.355469 21.445312 L 78.355469 74.523438 C 78.355469 80.507812 82.957031 81.292969 86.96875 81.292969 L 89.125 81.292969 L 89.125 28.804688 L 91.277344 26.941406 C 100.675781 19.089844 109.09375 27.429688 109.09375 42.050781 C 109.09375 49.800781 106.15625 63.632812 95.976562 63.632812 C 92.15625 63.632812 89.125 60.984375 89.125 57.0625 Z M 89.125 63.046875 "/>
<path style=" stroke:none;fill-rule:nonzero;fill:rgb(20%,20%,20%);fill-opacity:1;" d="M 146.292969 64.613281 C 143.257812 62.652344 139.4375 61.671875 135.523438 61.671875 C 123.679688 61.671875 117.804688 68.636719 117.804688 75.015625 C 117.804688 79.429688 121.035156 83.941406 127.203125 83.941406 C 136.109375 83.941406 144.039062 72.167969 147.367188 64.515625 L 166.652344 21.445312 L 165.574219 21.445312 L 151.871094 52.15625 L 137.675781 26.058594 C 135.816406 22.625 134.542969 21.445312 130.433594 21.445312 L 122.894531 21.445312 Z M 146.292969 64.714844 C 143.84375 70.894531 136.601562 78.941406 129.0625 78.941406 C 123.1875 78.941406 120.546875 75.703125 120.546875 72.367188 C 120.546875 65.007812 129.453125 62.652344 135.621094 62.652344 C 141.101562 62.652344 145.117188 64.320312 146.292969 64.714844 Z M 146.292969 64.714844 "/>
<path style=" stroke:none;fill-rule:nonzero;fill:rgb(20%,20%,20%);fill-opacity:1;" d="M 183.390625 63.046875 C 186.328125 64.125 188.089844 64.613281 191.222656 64.613281 C 205.515625 64.613281 215.207031 54.804688 215.207031 40.578125 C 215.207031 30.375 208.84375 20.5625 197.878906 20.5625 C 193.667969 20.464844 190.144531 21.839844 185.347656 25.859375 L 183.390625 27.429688 C 183 22.132812 178.59375 21.445312 174.679688 21.445312 L 172.625 21.445312 L 172.625 74.523438 C 172.625 80.507812 177.222656 81.292969 181.238281 81.292969 L 183.390625 81.292969 L 183.390625 28.804688 L 185.546875 26.941406 C 194.941406 19.089844 203.359375 27.429688 203.359375 42.050781 C 203.359375 49.800781 200.425781 63.632812 190.242188 63.632812 C 186.425781 63.632812 183.390625 60.984375 183.390625 57.0625 Z M 183.390625 63.046875 "/>
<path style=" stroke:none;fill-rule:nonzero;fill:rgb(20%,20%,20%);fill-opacity:1;" d="M 238.894531 20.464844 C 232.53125 20.464844 227.832031 22.425781 223.527344 25.175781 L 223.527344 33.023438 C 226.5625 27.039062 230.574219 21.445312 237.621094 21.445312 C 243.105469 21.445312 245.941406 24.683594 245.941406 28.410156 C 245.941406 32.53125 242.910156 35.867188 239.480469 37.632812 C 230.964844 42.050781 217.261719 42.835938 217.261719 53.726562 C 217.261719 59.808594 222.15625 64.515625 228.617188 64.515625 C 235.957031 64.515625 242.417969 60.199219 245.84375 57.453125 C 245.84375 61.671875 248 64.515625 252.207031 64.515625 C 255.144531 64.515625 258.277344 63.242188 259.453125 61.671875 C 256.90625 62.359375 255.632812 61.082031 255.632812 57.746094 L 255.632812 43.03125 L 255.046875 43.03125 C 253.1875 49.210938 249.859375 54.804688 245.84375 57.453125 C 239.582031 61.769531 228.519531 59.90625 228.519531 50.488281 C 228.421875 44.503906 233.316406 41.363281 238.992188 39.007812 C 246.628906 35.769531 255.730469 34.101562 255.730469 29.195312 C 255.730469 23.605469 247.3125 20.464844 238.894531 20.464844 Z M 238.894531 20.464844 "/>
<path style=" stroke:none;fill-rule:nonzero;fill:rgb(20%,20%,20%);fill-opacity:1;" d="M 290.972656 58.53125 C 290.972656 62.554688 286.46875 63.535156 283.238281 63.535156 C 275.40625 63.632812 268.652344 58.726562 264.933594 51.957031 L 264.933594 59.808594 C 268.945312 62.359375 275.113281 64.515625 282.457031 64.515625 C 291.070312 64.515625 299 61.378906 299 53.039062 C 299 40.675781 272.273438 34.199219 272.273438 26.546875 C 272.273438 23.40625 275.40625 21.445312 279.324219 21.445312 C 284.804688 21.445312 291.949219 24.683594 295.769531 32.042969 L 295.769531 24.191406 C 292.246094 22.035156 286.175781 20.464844 280.398438 20.464844 C 272.472656 20.464844 264.933594 23.507812 264.933594 31.746094 C 264.933594 43.71875 290.972656 49.113281 290.972656 58.53125 Z M 290.972656 58.53125 "/>
</g>
</svg>
